<mxfile host="Electron" modified="2024-03-27T08:41:23.078Z" agent="Mozilla/5.0 (Windows NT 10.0; Win64; x64) AppleWebKit/537.36 (KHTML, like Gecko) draw.io/24.1.0 Chrome/120.0.6099.109 Electron/28.1.0 Safari/537.36" etag="2uJnbtosMhQRK6_mnTxu" version="24.1.0" type="device">
  <diagram name="Page-1" id="IxDu_wAMzj1AgWyu5N57">
    <mxGraphModel dx="1020" dy="496" grid="1" gridSize="10" guides="1" tooltips="1" connect="1" arrows="1" fold="1" page="1" pageScale="1" pageWidth="850" pageHeight="1100" math="0" shadow="0">
      <root>
        <mxCell id="0" />
        <mxCell id="1" parent="0" />
        <mxCell id="Q8_6otFdk0LfD1vQQYLO-36" style="edgeStyle=orthogonalEdgeStyle;rounded=0;orthogonalLoop=1;jettySize=auto;html=1;entryX=0.5;entryY=0;entryDx=0;entryDy=0;" parent="1" source="Q8_6otFdk0LfD1vQQYLO-1" target="Q8_6otFdk0LfD1vQQYLO-34" edge="1">
          <mxGeometry relative="1" as="geometry" />
        </mxCell>
        <mxCell id="Q8_6otFdk0LfD1vQQYLO-1" value="User" style="rounded=1;whiteSpace=wrap;html=1;" parent="1" vertex="1">
          <mxGeometry x="290" y="100" width="120" height="60" as="geometry" />
        </mxCell>
        <mxCell id="Q8_6otFdk0LfD1vQQYLO-2" value="Principal" style="ellipse;whiteSpace=wrap;html=1;" parent="1" vertex="1">
          <mxGeometry x="480" y="110" width="90" height="40" as="geometry" />
        </mxCell>
        <mxCell id="Q8_6otFdk0LfD1vQQYLO-4" value="NFT" style="rounded=1;whiteSpace=wrap;html=1;" parent="1" vertex="1">
          <mxGeometry x="580" y="210" width="120" height="60" as="geometry" />
        </mxCell>
        <mxCell id="Q8_6otFdk0LfD1vQQYLO-5" value="Name" style="ellipse;whiteSpace=wrap;html=1;" parent="1" vertex="1">
          <mxGeometry x="450" y="355" width="110" height="60" as="geometry" />
        </mxCell>
        <mxCell id="Q8_6otFdk0LfD1vQQYLO-6" value="Owner" style="ellipse;whiteSpace=wrap;html=1;" parent="1" vertex="1">
          <mxGeometry x="590" y="365" width="120" height="60" as="geometry" />
        </mxCell>
        <mxCell id="Q8_6otFdk0LfD1vQQYLO-7" value="Content" style="ellipse;whiteSpace=wrap;html=1;strokeColor=default;" parent="1" vertex="1">
          <mxGeometry x="730" y="355" width="120" height="55" as="geometry" />
        </mxCell>
        <mxCell id="Q8_6otFdk0LfD1vQQYLO-8" value="" style="endArrow=none;html=1;rounded=0;entryX=0.5;entryY=0;entryDx=0;entryDy=0;exitX=0.5;exitY=1;exitDx=0;exitDy=0;" parent="1" source="Q8_6otFdk0LfD1vQQYLO-4" target="Q8_6otFdk0LfD1vQQYLO-6" edge="1">
          <mxGeometry width="50" height="50" relative="1" as="geometry">
            <mxPoint x="400" y="370" as="sourcePoint" />
            <mxPoint x="450" y="320" as="targetPoint" />
          </mxGeometry>
        </mxCell>
        <mxCell id="Q8_6otFdk0LfD1vQQYLO-9" value="" style="endArrow=none;html=1;rounded=0;entryX=0.5;entryY=0;entryDx=0;entryDy=0;exitX=0.25;exitY=1;exitDx=0;exitDy=0;" parent="1" source="Q8_6otFdk0LfD1vQQYLO-4" target="Q8_6otFdk0LfD1vQQYLO-5" edge="1">
          <mxGeometry width="50" height="50" relative="1" as="geometry">
            <mxPoint x="400" y="370" as="sourcePoint" />
            <mxPoint x="450" y="320" as="targetPoint" />
          </mxGeometry>
        </mxCell>
        <mxCell id="Q8_6otFdk0LfD1vQQYLO-11" value="" style="endArrow=none;html=1;rounded=0;entryX=0.75;entryY=1;entryDx=0;entryDy=0;exitX=0.243;exitY=0.064;exitDx=0;exitDy=0;exitPerimeter=0;" parent="1" source="Q8_6otFdk0LfD1vQQYLO-7" target="Q8_6otFdk0LfD1vQQYLO-4" edge="1">
          <mxGeometry width="50" height="50" relative="1" as="geometry">
            <mxPoint x="400" y="370" as="sourcePoint" />
            <mxPoint x="450" y="320" as="targetPoint" />
          </mxGeometry>
        </mxCell>
        <mxCell id="Q8_6otFdk0LfD1vQQYLO-28" style="edgeStyle=orthogonalEdgeStyle;rounded=0;orthogonalLoop=1;jettySize=auto;html=1;exitX=0.5;exitY=0;exitDx=0;exitDy=0;entryX=0;entryY=0.5;entryDx=0;entryDy=0;" parent="1" source="Q8_6otFdk0LfD1vQQYLO-12" target="Q8_6otFdk0LfD1vQQYLO-4" edge="1">
          <mxGeometry relative="1" as="geometry" />
        </mxCell>
        <mxCell id="Q8_6otFdk0LfD1vQQYLO-12" value="NFTForge" style="rounded=0;whiteSpace=wrap;html=1;" parent="1" vertex="1">
          <mxGeometry x="140" y="290" width="120" height="60" as="geometry" />
        </mxCell>
        <mxCell id="Q8_6otFdk0LfD1vQQYLO-13" value="Listing" style="rounded=0;whiteSpace=wrap;html=1;" parent="1" vertex="1">
          <mxGeometry x="320" y="550" width="120" height="60" as="geometry" />
        </mxCell>
        <mxCell id="Q8_6otFdk0LfD1vQQYLO-14" value="Map of NFTs" style="ellipse;whiteSpace=wrap;html=1;" parent="1" vertex="1">
          <mxGeometry x="40" y="435" width="110" height="65" as="geometry" />
        </mxCell>
        <mxCell id="Q8_6otFdk0LfD1vQQYLO-15" value="Map of Owners" style="ellipse;whiteSpace=wrap;html=1;" parent="1" vertex="1">
          <mxGeometry x="145" y="480" width="110" height="70" as="geometry" />
        </mxCell>
        <mxCell id="Q8_6otFdk0LfD1vQQYLO-16" value="Map of Listing" style="ellipse;whiteSpace=wrap;html=1;" parent="1" vertex="1">
          <mxGeometry x="260" y="415" width="100" height="65" as="geometry" />
        </mxCell>
        <mxCell id="Q8_6otFdk0LfD1vQQYLO-18" value="" style="endArrow=none;html=1;rounded=0;entryX=0.25;entryY=1;entryDx=0;entryDy=0;exitX=0.5;exitY=0;exitDx=0;exitDy=0;" parent="1" source="Q8_6otFdk0LfD1vQQYLO-14" target="Q8_6otFdk0LfD1vQQYLO-12" edge="1">
          <mxGeometry width="50" height="50" relative="1" as="geometry">
            <mxPoint x="400" y="370" as="sourcePoint" />
            <mxPoint x="450" y="320" as="targetPoint" />
          </mxGeometry>
        </mxCell>
        <mxCell id="Q8_6otFdk0LfD1vQQYLO-19" value="" style="endArrow=none;html=1;rounded=0;entryX=0.5;entryY=1;entryDx=0;entryDy=0;exitX=0.5;exitY=0;exitDx=0;exitDy=0;" parent="1" source="Q8_6otFdk0LfD1vQQYLO-15" target="Q8_6otFdk0LfD1vQQYLO-12" edge="1">
          <mxGeometry width="50" height="50" relative="1" as="geometry">
            <mxPoint x="400" y="370" as="sourcePoint" />
            <mxPoint x="450" y="320" as="targetPoint" />
          </mxGeometry>
        </mxCell>
        <mxCell id="Q8_6otFdk0LfD1vQQYLO-20" value="" style="endArrow=none;html=1;rounded=0;entryX=0.75;entryY=1;entryDx=0;entryDy=0;exitX=0.5;exitY=0;exitDx=0;exitDy=0;" parent="1" source="Q8_6otFdk0LfD1vQQYLO-16" target="Q8_6otFdk0LfD1vQQYLO-12" edge="1">
          <mxGeometry width="50" height="50" relative="1" as="geometry">
            <mxPoint x="400" y="370" as="sourcePoint" />
            <mxPoint x="450" y="320" as="targetPoint" />
          </mxGeometry>
        </mxCell>
        <mxCell id="Q8_6otFdk0LfD1vQQYLO-21" value="NFT Owner" style="ellipse;whiteSpace=wrap;html=1;" parent="1" vertex="1">
          <mxGeometry x="240" y="660" width="120" height="70" as="geometry" />
        </mxCell>
        <mxCell id="Q8_6otFdk0LfD1vQQYLO-22" value="NFT Price" style="ellipse;whiteSpace=wrap;html=1;" parent="1" vertex="1">
          <mxGeometry x="425" y="660" width="120" height="70" as="geometry" />
        </mxCell>
        <mxCell id="Q8_6otFdk0LfD1vQQYLO-23" value="" style="endArrow=none;html=1;rounded=0;exitX=0.5;exitY=0;exitDx=0;exitDy=0;entryX=0.25;entryY=1;entryDx=0;entryDy=0;" parent="1" source="Q8_6otFdk0LfD1vQQYLO-21" target="Q8_6otFdk0LfD1vQQYLO-13" edge="1">
          <mxGeometry width="50" height="50" relative="1" as="geometry">
            <mxPoint x="400" y="500" as="sourcePoint" />
            <mxPoint x="450" y="450" as="targetPoint" />
          </mxGeometry>
        </mxCell>
        <mxCell id="Q8_6otFdk0LfD1vQQYLO-24" value="" style="endArrow=none;html=1;rounded=0;entryX=0.75;entryY=1;entryDx=0;entryDy=0;exitX=0.32;exitY=0;exitDx=0;exitDy=0;exitPerimeter=0;" parent="1" source="Q8_6otFdk0LfD1vQQYLO-22" target="Q8_6otFdk0LfD1vQQYLO-13" edge="1">
          <mxGeometry width="50" height="50" relative="1" as="geometry">
            <mxPoint x="510" y="620" as="sourcePoint" />
            <mxPoint x="560" y="570" as="targetPoint" />
          </mxGeometry>
        </mxCell>
        <mxCell id="Q8_6otFdk0LfD1vQQYLO-26" style="edgeStyle=orthogonalEdgeStyle;rounded=0;orthogonalLoop=1;jettySize=auto;html=1;exitX=1;exitY=0.5;exitDx=0;exitDy=0;entryX=0.614;entryY=-0.007;entryDx=0;entryDy=0;entryPerimeter=0;" parent="1" source="Q8_6otFdk0LfD1vQQYLO-12" target="Q8_6otFdk0LfD1vQQYLO-13" edge="1">
          <mxGeometry relative="1" as="geometry" />
        </mxCell>
        <mxCell id="Q8_6otFdk0LfD1vQQYLO-31" value="" style="endArrow=none;html=1;rounded=0;entryX=0;entryY=0.5;entryDx=0;entryDy=0;exitX=1;exitY=0.5;exitDx=0;exitDy=0;" parent="1" source="Q8_6otFdk0LfD1vQQYLO-1" target="Q8_6otFdk0LfD1vQQYLO-2" edge="1">
          <mxGeometry width="50" height="50" relative="1" as="geometry">
            <mxPoint x="400" y="410" as="sourcePoint" />
            <mxPoint x="450" y="360" as="targetPoint" />
          </mxGeometry>
        </mxCell>
        <mxCell id="Q8_6otFdk0LfD1vQQYLO-37" style="edgeStyle=orthogonalEdgeStyle;rounded=0;orthogonalLoop=1;jettySize=auto;html=1;exitX=0.5;exitY=1;exitDx=0;exitDy=0;entryX=0;entryY=0.5;entryDx=0;entryDy=0;" parent="1" source="Q8_6otFdk0LfD1vQQYLO-34" target="Q8_6otFdk0LfD1vQQYLO-12" edge="1">
          <mxGeometry relative="1" as="geometry" />
        </mxCell>
        <mxCell id="Q8_6otFdk0LfD1vQQYLO-34" value="&#xa;&lt;span style=&quot;color: rgb(0, 0, 0); font-family: Helvetica; font-size: 12px; font-style: normal; font-variant-ligatures: normal; font-variant-caps: normal; font-weight: 400; letter-spacing: normal; orphans: 2; text-align: center; text-indent: 0px; text-transform: none; widows: 2; word-spacing: 0px; -webkit-text-stroke-width: 0px; background-color: rgb(251, 251, 251); text-decoration-thickness: initial; text-decoration-style: initial; text-decoration-color: initial; float: none; display: inline !important;&quot;&gt;Buy, Sell, Mint&lt;/span&gt;&#xa;&#xa;" style="rhombus;whiteSpace=wrap;html=1;" parent="1" vertex="1">
          <mxGeometry x="20" y="150" width="150" height="120" as="geometry" />
        </mxCell>
      </root>
    </mxGraphModel>
  </diagram>
</mxfile>
